<svg width="22" height="22" viewBox="0 0 22 22" fill="none" xmlns="http://www.w3.org/2000/svg">
<path d="M11.0025 5.35948C10.2613 5.35754 9.52692 5.50165 8.8414 5.78357C8.15588 6.0655 7.53259 6.47971 7.00711 7.00257C5.94586 8.05853 5.34746 9.49292 5.34356 10.9902C5.33965 12.4874 5.93056 13.9249 6.98629 14.9864C8.04201 16.0479 9.47608 16.6464 10.973 16.6503C12.4699 16.6542 13.9071 16.0632 14.9683 15.0072C16.0296 13.9513 16.628 12.5169 16.6319 11.0196C16.6358 9.52237 16.0449 8.08489 14.9892 7.0234C13.9334 5.96191 12.4994 5.36338 11.0025 5.35948ZM10.973 7.34274C11.4538 7.34081 11.9303 7.43362 12.3753 7.61587C12.8202 7.79813 13.2249 8.06626 13.5663 8.40495C13.9076 8.74365 14.179 9.14628 14.3647 9.58985C14.5505 10.0334 14.6471 10.5093 14.6491 10.9902C14.651 11.4711 14.5582 11.9477 14.376 12.3928C14.1938 12.8378 13.9257 13.2426 13.5871 13.584C13.2485 13.9255 12.8459 14.1968 12.4025 14.3827C11.959 14.5685 11.4833 14.6651 11.0025 14.6671C10.5216 14.669 10.0452 14.5762 9.60019 14.3939C9.15524 14.2117 8.75053 13.9436 8.40918 13.6049C8.06782 13.2662 7.7965 12.8635 7.61072 12.42C7.42493 11.9764 7.32831 11.5006 7.32638 11.0196C7.32445 10.5387 7.41724 10.0621 7.59945 9.61706C7.78166 9.17201 8.04973 8.76721 8.38835 8.42578C8.72697 8.08435 9.12951 7.81297 9.57299 7.62714C10.0165 7.44132 10.4922 7.34468 10.973 7.34274ZM15.5571 5.12875C15.5571 4.77982 15.6956 4.44519 15.9423 4.19846C16.189 3.95173 16.5235 3.81312 16.8724 3.81312C17.2212 3.81312 17.5558 3.95173 17.8025 4.19846C18.0491 4.44519 18.1877 4.77982 18.1877 5.12875C18.1877 5.47768 18.0491 5.81231 17.8025 6.05904C17.5558 6.30577 17.2212 6.44438 16.8724 6.44438C16.5235 6.44438 16.189 6.30577 15.9423 6.05904C15.6956 5.81231 15.5571 5.47768 15.5571 5.12875ZM21.9227 6.46402C21.8393 4.70166 21.4368 3.14058 20.146 1.8544C18.8601 0.568225 17.2994 0.165681 15.5374 0.0773179C13.7215 -0.0257726 8.27853 -0.0257726 6.46258 0.0773179C4.70552 0.160772 3.14479 0.563316 1.85399 1.84949C0.56319 3.13567 0.165644 4.69675 0.0773006 6.45911C-0.0257669 8.27547 -0.0257669 13.7196 0.0773006 15.536C0.160736 17.2983 0.56319 18.8594 1.85399 20.1456C3.14479 21.4318 4.70061 21.8343 6.46258 21.9227C8.27853 22.0258 13.7215 22.0258 15.5374 21.9227C17.2994 21.8392 18.8601 21.4367 20.146 20.1456C21.4319 18.8594 21.8344 17.2983 21.9227 15.536C22.0258 13.7196 22.0258 8.28037 21.9227 6.46402ZM19.5767 17.4849C19.1939 18.4471 18.4528 19.1883 17.4859 19.5761C16.038 20.1505 12.6025 20.018 11.0025 20.018C9.40245 20.018 5.96196 20.1456 4.51902 19.5761C3.55705 19.1932 2.81595 18.452 2.42822 17.4849C1.85399 16.0367 1.9865 12.6004 1.9865 11C1.9865 9.39964 1.8589 5.95838 2.42822 4.51512C2.81104 3.55294 3.55215 2.81167 4.51902 2.42385C5.96687 1.84949 9.40245 1.98204 11.0025 1.98204C12.6025 1.98204 16.0429 1.8544 17.4859 2.42385C18.4479 2.80676 19.189 3.54803 19.5767 4.51512C20.1509 5.96329 20.0184 9.39964 20.0184 11C20.0184 12.6004 20.1509 16.0416 19.5767 17.4849Z" fill="#454F4F"/>
</svg>
