<svg width="93" height="72" viewBox="0 0 93 72" fill="none" xmlns="http://www.w3.org/2000/svg">
<path d="M92.1772 55.1217C90.3528 57.4218 85.9129 59.0578 85.9129 59.0578L52.7992 70.9795V62.184L77.1622 53.4695C79.923 52.4814 80.359 51.0722 78.0986 50.3271C75.8545 49.582 71.7859 49.7926 69.0251 50.7969L52.7992 56.5471V47.4115C56.5449 46.148 60.4036 45.2085 65.0211 44.6902C71.6245 43.9613 79.697 44.7874 86.042 47.2009C93.1782 49.4686 93.9854 52.8216 92.1772 55.1217ZM55.9475 40.1386V17.6234C55.9475 14.9831 55.4632 12.5534 52.993 11.8569C51.104 11.2414 49.9254 13.007 49.9254 15.6472V72L34.7813 67.173V0C41.2232 1.19865 50.6035 4.0333 55.6408 5.73408C68.4762 10.1561 72.8192 15.6634 72.8192 28.0549C72.8192 40.1224 65.3924 44.7064 55.9475 40.1386ZM6.97941 61.2607C-0.350476 59.1874 -1.5775 54.8625 1.76453 52.3843C4.84825 50.0841 10.1116 48.351 10.1116 48.351L31.8267 40.6083V49.4362L16.1983 55.0407C13.4375 56.0288 13.0177 57.438 15.2619 58.1831C17.506 58.9282 21.5746 58.7177 24.3354 57.7134L31.8267 54.9759V62.8805C23.4959 64.387 15.4556 64.063 6.97941 61.2607Z" fill="white"/>
</svg>
