<svg width="72" height="72" viewBox="0 0 72 72" fill="none" xmlns="http://www.w3.org/2000/svg">
<path d="M72 36C72 55.8871 55.8581 72 35.9419 72C19.4226 72 5.51613 60.9242 1.24839 45.8129L15.0677 51.5177C15.9968 56.1774 20.1339 59.7048 25.0694 59.7048C30.7597 59.7048 35.5064 55.0016 35.2597 49.0355L47.5258 40.2968C55.0887 40.4855 61.4323 34.3597 61.4323 26.7242C61.4323 19.2339 55.3355 13.1516 47.8306 13.1516C40.3258 13.1516 34.229 19.2484 34.229 26.7242V26.8984L25.6355 39.3387C23.3855 39.2081 21.179 39.8323 19.321 41.0952L0 33.1113C1.48065 14.5742 16.9984 0 35.9419 0C55.8581 0 72 16.1129 72 36ZM22.6016 54.6242L18.1742 52.7952C18.9871 54.479 20.3952 55.8145 22.1226 56.5403C26.0274 58.1661 30.5129 56.3081 32.1387 52.4177C32.9226 50.5306 32.9371 48.4548 32.1532 46.5677C31.3694 44.6806 29.9032 43.2 28.0161 42.4161C26.1435 41.6323 24.1403 41.6613 22.3694 42.329L26.9419 44.2161C29.8161 45.4065 31.1806 48.7016 29.9758 51.5758C28.771 54.4645 25.4758 55.8145 22.6016 54.6242ZM47.8306 17.6806C50.2291 17.6806 52.5294 18.6334 54.2254 20.3294C55.9214 22.0254 56.8742 24.3257 56.8742 26.7242C56.8742 29.1227 55.9214 31.423 54.2254 33.1189C52.5294 34.8149 50.2291 35.7677 47.8306 35.7677C45.4321 35.7677 43.1319 34.8149 41.4359 33.1189C39.7399 31.423 38.7871 29.1227 38.7871 26.7242C38.7871 24.3257 39.7399 22.0254 41.4359 20.3294C43.1319 18.6334 45.4321 17.6806 47.8306 17.6806ZM47.8452 33.5032C48.7373 33.5032 49.6207 33.3275 50.4449 32.9861C51.2692 32.6447 52.0181 32.1443 52.6489 31.5134C53.2798 30.8826 53.7802 30.1337 54.1216 29.3095C54.463 28.4852 54.6387 27.6018 54.6387 26.7097C54.6387 25.8175 54.463 24.9341 54.1216 24.1099C53.7802 23.2857 53.2798 22.5368 52.6489 21.9059C52.0181 21.2751 51.2692 20.7747 50.4449 20.4333C49.6207 20.0918 48.7373 19.9161 47.8452 19.9161C46.953 19.9161 46.0696 20.0918 45.2454 20.4333C44.4212 20.7747 43.6722 21.2751 43.0414 21.9059C42.4106 22.5368 41.9101 23.2857 41.5687 24.1099C41.2273 24.9341 41.0516 25.8175 41.0516 26.7097C41.0516 27.6018 41.2273 28.4852 41.5687 29.3095C41.9101 30.1337 42.4106 30.8826 43.0414 31.5134C43.6722 32.1443 44.4212 32.6447 45.2454 32.9861C46.0696 33.3275 46.953 33.5032 47.8452 33.5032Z" fill="white"/>
</svg>
