<svg xmlns="http://www.w3.org/2000/svg" width="343" height="230" fill="none" viewBox="0 0 343 230">
  <path fill="#fff" d="m140.362 179.554 10.542-8.331q2.36-.59 5.381-.59 3.981 0 7.152 2.581 3.243 2.507 5.012 6.855 1.843 4.35 1.843 9.584 0 5.677-3.465 10.69a27 27 0 0 1-8.698 7.961q-5.16 2.948-10.026 2.949v.074q-3.981 0-7.373-2.433v14.301l10.322 3.17-1.475 2.949h-24.254v-2.285l6.561-5.16v-39.588l-6.561-3.834v-2.285l12.607-6.192zm-123.363-8.921q3.39 0 7.815.885 4.496.81 6.487 1.843v11.353H28.5q-2.36-4.57-5.455-7.077-3.096-2.58-6.34-2.58-2.286 0-3.686 1.253-1.4 1.18-1.4 3.022 0 2.285 2.358 4.129 2.432 1.768 7.298 4.201 3.76 1.918 6.045 3.318t3.833 3.318q1.622 1.843 1.622 4.128 0 2.727-2.358 5.75-2.286 2.948-5.677 5.012-3.317 2.065-6.119 2.065-3.612 0-8.625-.811-4.94-.884-7.077-1.917v-11.352h2.802q2.58 4.57 6.118 7.15 3.539 2.507 7.151 2.507 2.433 0 3.908-1.254 1.547-1.253 1.547-3.022 0-2.064-2.285-3.76-2.285-1.77-7.004-4.202-3.833-1.99-6.192-3.465t-4.055-3.391q-1.621-1.99-1.622-4.275 0-2.654 2.212-5.677a20 20 0 0 1 5.455-5.087q3.244-2.064 6.045-2.064m89.409 0q7.003 0 10.837 5.529 3.907 5.53 3.907 14.597H93.876q.442 6.266 3.39 10.247 3.023 3.981 8.184 3.981 4.792 0 13.638-7.446l2.212 2.802-13.049 10.32q-2.949.59-7.077.59-4.866 0-8.773-2.507-3.833-2.58-6.045-6.93-2.137-4.348-2.137-9.583 0-5.676 3.465-10.616 3.465-5.012 8.625-7.961 5.234-3.023 10.099-3.023m137.647 0q7.003 0 10.837 5.529 3.906 5.53 3.907 14.597h-27.277q.442 6.266 3.391 10.247 3.023 3.981 8.184 3.981 4.791 0 13.637-7.446l2.212 2.802-13.049 10.32q-2.948.59-7.077.59-4.865 0-8.772-2.507-3.834-2.58-6.045-6.93-2.138-4.348-2.138-9.583 0-5.676 3.465-10.616 3.465-5.012 8.625-7.961 5.234-3.023 10.1-3.023m91.423 34.353 6.56 2.581-1.475 2.949h-14.005v-5.308l-6.857 5.455q-2.358.59-5.677.59-4.864 0-8.772-2.507-3.833-2.58-6.045-6.93-2.138-4.348-2.138-9.583 0-5.676 3.465-10.616 3.465-5.013 8.625-7.962 5.234-3.022 10.1-3.022 4.054 0 7.372 2.286v-15.187l-6.562-4.571v-2.285l12.607-4.718h2.802zm-57.617-25.949 7.667-7.814q1.548-.59 4.055-.59v.074q2.433 0 4.275 1.327t2.875 3.686l-4.865 6.119h-2.802q-.295-1.844-1.105-2.58-.738-.812-2.065-.812-1.622 0-3.464.885-1.77.811-4.055 3.17v21.969l10.321 3.17-1.474 2.949H262.97v-2.286l6.56-5.16v-20.863l-6.56-3.834v-2.285l12.606-6.192zm-227.202.148 10.1-7.962q1.548-.59 4.055-.59 5.012 0 7.961 3.096 2.95 3.024 2.95 8.257v23l6.634 2.581-1.474 2.949H66.878v-24.844q0-4.055-1.253-5.676t-4.497-1.622q-2.433 0-4.865.885-2.36.885-5.604 3.39v22.337l6.635 2.581-1.474 2.949H35.252v-2.286l6.561-5.16v-45.338l-6.561-4.571v-2.285l12.606-4.718h2.801zm137.647 0 10.099-7.962q1.548-.59 4.055-.59 5.013 0 7.962 3.096 2.949 3.024 2.949 8.257v23l6.635 2.581-1.475 2.949h-14.007v-24.844q0-4.055-1.253-5.676t-4.497-1.622q-2.432 0-4.865.885-2.359.885-5.603 3.39v22.337l6.634 2.581-1.473 2.949h-20.569v-2.286l6.562-5.16v-45.338l-6.562-4.571v-2.285l12.607-4.718h2.801zm-35.781-1.475a14.1 14.1 0 0 0-5.455 1.106q-2.653 1.107-6.34 4.35v12.458q.001 4.055 3.023 6.782t8.625 2.728q8.33 0 8.331-11.868 0-6.561-2.138-11.059t-6.046-4.497m162.458-.884q-8.33 0-8.331 11.868 0 6.93 2.875 11.649 2.876 4.644 8.257 4.643 2.212.001 4.202-.589 2.065-.664 4.572-2.433v-16.808q-.442-3.686-3.465-5.971-2.95-2.36-8.11-2.359m-212.85 0q-7.962 0-8.331 10.91h17.251q-.664-3.98-1.401-6.045a6.7 6.7 0 0 0-2.433-3.464q-1.696-1.401-5.086-1.401m137.646 0q-7.961 0-8.331 10.91h17.251q-.664-3.98-1.401-6.045a6.7 6.7 0 0 0-2.433-3.464q-1.695-1.401-5.086-1.401M155.832 67.317q12.718 0 19.68 10.041 7.095 10.041 7.095 26.508h-49.534q.804 11.379 6.158 18.609 5.49 7.229 14.861 7.229 8.702 0 24.767-13.521l4.016 5.087-23.695 18.743q-5.356 1.07-12.853 1.07-8.835 0-15.931-4.552-6.962-4.685-10.978-12.584-3.882-7.898-3.882-17.404 0-10.308 6.292-19.277 6.292-9.105 15.663-14.46 9.506-5.489 18.341-5.489m72.639 0q12.717 0 19.679 10.041 7.096 10.041 7.095 26.508h-49.533q.803 11.379 6.158 18.609 5.488 7.229 14.859 7.229 8.703 0 24.768-13.521l4.017 5.087-23.697 18.743q-5.355 1.07-12.852 1.07-8.836 0-15.931-4.552-6.962-4.685-10.978-12.584-3.883-7.898-3.882-17.404 0-10.308 6.292-19.277 6.292-9.105 15.663-14.46 9.505-5.489 18.342-5.489M84.536 82.58 98.46 68.39q2.811-1.072 7.363-1.072v.134q4.418 0 7.765 2.41t5.222 6.694l-8.836 11.112h-5.087q-.536-3.347-2.009-4.686-1.34-1.472-3.748-1.472-2.945 0-6.292 1.606-3.214 1.473-7.363 5.757v39.895l18.742 5.756-2.678 5.355H57.493v-4.149l11.915-9.373V88.47l-11.915-6.961v-4.15l22.893-11.246zM52.212 21.532q3.748 0 8.433.804 4.82.669 6.829 1.473v20.616h-5.088q-3.347-5.355-8.166-8.434-4.82-3.213-9.774-3.214-6.158 0-9.37 5.49-3.08 5.488-3.08 16.065v18.34h24.098v5.49H31.996v50.471l18.743 5.757-2.677 5.354H4.017v-4.149l11.915-9.372v-48.06H0v-5.49h15.932V60.758q0-10.308 5.622-19.412 5.623-9.104 14.057-14.458 8.569-5.355 16.6-5.356m95.855 57.032q-14.458 0-15.128 19.813h31.328q-1.206-7.23-2.544-10.978-1.206-3.882-4.418-6.293-3.08-2.542-9.238-2.542m72.638 0q-14.459 0-15.128 19.813h31.327q-1.204-7.23-2.543-10.978-1.205-3.882-4.418-6.293-3.079-2.542-9.238-2.542M88.2 19.087h9.236v2.103H88.2v15.6q0 4.155 4.002 4.154 1.078 0 2.053-.46 1.027-.463 2.514-1.643l1.54 1.95-5.183 4.105q-1.18.41-2.873.41-4.26 0-6.26-2.206-1.95-2.259-1.95-6.927V21.19h-5.541v-2.103l9.749-11.339h1.95zm58.61-2.053q4.874 0 7.542 3.849 2.719 3.848 2.719 10.159h-18.984q.308 4.361 2.36 7.132 2.104 2.77 5.696 2.77 3.335 0 9.492-5.181l1.539 1.949-9.082 7.183q-2.053.41-4.926.41-3.386 0-6.105-1.743-2.668-1.797-4.207-4.824-1.488-3.027-1.489-6.67 0-3.95 2.412-7.388 2.412-3.489 6.003-5.541 3.643-2.105 7.03-2.105m-38.801 5.952 7.029-5.54q1.077-.412 2.822-.412 3.489 0 5.541 2.156 2.053 2.104 2.053 5.746v16.008l4.617 1.796-1.026 2.053h-9.748V27.502q0-2.822-.873-3.951t-3.13-1.13a9.9 9.9 0 0 0-3.386.617q-1.641.615-3.899 2.36v15.546l4.617 1.796-1.025 2.053H97.285v-1.59l4.567-3.593V8.056l-4.567-3.182v-1.59L106.06 0h1.95zm35.825-1.641q-5.542 0-5.799 7.594h12.007q-.462-2.77-.975-4.208a4.67 4.67 0 0 0-1.693-2.412q-1.18-.974-3.54-.974"/>
</svg>
